<svg aria-hidden="true" style="position: absolute; width: 0; height: 0; overflow: hidden;" version="1.1" xmlns="http://www.w3.org/2000/svg" xmlns:xlink="http://www.w3.org/1999/xlink">
<defs>
<symbol id="login-icon" viewBox="0 0 13 13">
    <path d="M5.12056 9.09278L6.13889 10.1111L9.75 6.5L6.13889 2.88889L5.12056 3.90722L6.98389 5.77778H0V7.22222H6.98389L5.12056 9.09278ZM11.5556 0H1.44444C0.642778 0 0 0.65 0 1.44444V4.33333H1.44444V1.44444H11.5556V11.5556H1.44444V8.66667H0V11.5556C0 12.35 0.642778 13 1.44444 13H11.5556C12.35 13 13 12.35 13 11.5556V1.44444C13 0.65 12.35 0 11.5556 0Z"/>
</symbol>
<symbol id="down-icon" viewBox="0 0 12 7">
    <polygon fill="#FFFFFF" points="6,6.7 0.6,1.4 1.4,0.6 6,5.3 10.6,0.6 11.4,1.4 	"/>
</symbol>
<symbol id="search-icon" viewBox="0 0 23 22">
    <rect width="6.8678" height="1.71695" transform="matrix(-0.718931 0.695081 0.718931 0.695081 4.9375 15.6534)" fill="white"/>
    <path fill-rule="evenodd" clip-rule="evenodd" d="M12.0969 18C7.53041 18 3.99692 14.3229 3.99692 10C3.99692 5.67715 7.53041 2 12.0969 2C16.6634 2 20.1969 5.67715 20.1969 10C20.1969 14.3229 16.6634 18 12.0969 18ZM12.0969 20C6.57408 20 2.09692 15.5228 2.09692 10C2.09692 4.47715 6.57408 0 12.0969 0C17.6198 0 22.0969 4.47715 22.0969 10C22.0969 15.5228 17.6198 20 12.0969 20Z" fill="white"/>
</symbol>
<symbol id="plus-icon" viewBox="0 0 81 79">
    <rect width="25.1624" height="6.2906" transform="matrix(-0.72074 0.693205 0.72074 0.693205 18.1355 57.1965)" fill="white"/>
    <path fill-rule="evenodd" clip-rule="evenodd" d="M44.2696 65.7708C28.0411 65.7708 14.8853 52.6834 14.8853 36.5393C14.8853 20.3952 28.0411 7.30786 44.2696 7.30786C60.4981 7.30786 73.6539 20.3952 73.6539 36.5393C73.6539 52.6834 60.4981 65.7708 44.2696 65.7708ZM44.2696 73.0786C23.984 73.0786 7.53923 56.7194 7.53923 36.5393C7.53923 16.3592 23.984 0 44.2696 0C64.5552 0 81 16.3592 81 36.5393C81 56.7194 64.5552 73.0786 44.2696 73.0786Z" fill="white"/>
    <path d="M42 24L42 49L47.9954 49L47.9955 24L42 24Z" fill="white"/>
    <path d="M57.2336 34L32.2336 34L32.2336 39.9954L57.2336 39.9955L57.2336 34Z" fill="white"/>
</symbol>

</defs>
</svg>
